<svg width="64" height="46" viewBox="0 0 64 46" fill="none" xmlns="http://www.w3.org/2000/svg">
<rect width="64" height="46" fill="#EFEFEF"/>
<g opacity="0.4">
<path d="M37.3001 31.9583H26.6584C25.3917 31.9583 24.2334 31.3166 23.5667 30.2333C22.9001 29.15 22.8417 27.8333 23.4084 26.6916L24.8417 23.8166C25.3084 22.8833 26.0584 22.3 26.9001 22.2083C27.7417 22.1166 28.6001 22.5333 29.2501 23.3416L29.4334 23.575C29.8001 24.025 30.2251 24.2666 30.6417 24.225C31.0584 24.1916 31.4417 23.8916 31.7251 23.3833L33.3001 20.5416C33.9501 19.3666 34.8167 18.7583 35.7584 18.8C36.6917 18.85 37.4917 19.55 38.0251 20.7833L40.6334 26.875C41.1167 28 41.0001 29.2833 40.3251 30.3083C39.6584 31.35 38.5251 31.9583 37.3001 31.9583ZM27.1334 23.4583C27.1001 23.4583 27.0667 23.4583 27.0334 23.4666C26.6167 23.5083 26.2334 23.8416 25.9584 24.3833L24.5251 27.2583C24.1501 28 24.1917 28.875 24.6251 29.5833C25.0584 30.2916 25.8251 30.7166 26.6584 30.7166H37.2917C38.1084 30.7166 38.8334 30.325 39.2834 29.6416C39.7334 28.9583 39.8084 28.1416 39.4834 27.3916L36.8751 21.3C36.5584 20.55 36.1167 20.0916 35.6917 20.075C35.3001 20.05 34.7917 20.4666 34.3917 21.175L32.8167 24.0166C32.3334 24.8833 31.5751 25.425 30.7501 25.5C29.9251 25.5666 29.0834 25.1666 28.4584 24.3833L28.2751 24.15C27.9251 23.6916 27.5251 23.4583 27.1334 23.4583Z" fill="#2B2A29"/>
<path d="M27.8081 20.2916C26.0914 20.2916 24.6831 18.8916 24.6831 17.1666C24.6831 15.4416 26.0831 14.0416 27.8081 14.0416C29.5331 14.0416 30.9331 15.4416 30.9331 17.1666C30.9331 18.8916 29.5331 20.2916 27.8081 20.2916ZM27.8081 15.2916C26.7748 15.2916 25.9331 16.1333 25.9331 17.1666C25.9331 18.2 26.7748 19.0416 27.8081 19.0416C28.8414 19.0416 29.6831 18.2 29.6831 17.1666C29.6831 16.1333 28.8414 15.2916 27.8081 15.2916Z" fill="#2B2A29"/>
</g>
</svg>
