<svg width="265" height="118" viewBox="0 0 265 118" fill="none" xmlns="http://www.w3.org/2000/svg">
<g opacity="0.04" clip-path="url(#clip0_998_20762)">
<path fill-rule="evenodd" clip-rule="evenodd" d="M116.157 52.2067H63.3428C58.4377 52.2286 57.7092 48.59 60.3968 45.4559L103.617 3.14137C107.471 -0.977534 112.052 -0.822286 115.465 3.11711L132.452 19.6315C121.899 29.8293 122.723 29.1986 109.224 42.3777H116.157V52.2067Z" fill="#2B2A29"/>
<path fill-rule="evenodd" clip-rule="evenodd" d="M122.982 52.2065H130.826V45.9554H122.982V52.2065ZM148.406 52.2065H201.786C206.698 52.2283 207.424 48.5873 204.734 45.4484L161.469 3.09016C157.61 -1.03359 153.025 -0.982652 149.607 2.95917L132.452 19.6313L140.116 27.0904V24.524H145.802V32.5289L155.573 42.375H148.403L148.406 52.2065Z" fill="#2B2A29"/>
<path fill-rule="evenodd" clip-rule="evenodd" d="M109.226 42.3752C122.723 29.1986 121.901 29.8268 132.454 19.629L140.121 27.0882V24.5242H145.806V32.5291L155.577 42.3752H148.408V52.2067H130.828V45.9556H122.984V52.2067H116.159V42.3752H109.226Z" fill="white"/>
<path d="M39.093 106.08V85.9076L31.6997 106.08H19.7188L12.2566 85.9051V106.078H0V66.5623H16.4996L25.6748 92.6099L34.5743 66.5623H51.1428V106.078L39.093 106.08ZM94.8923 118V109.556H111.111C112.271 109.556 112.849 109.035 112.849 107.996V106.194H99.9893C94.6979 106.194 92.0521 103.802 92.0521 99.0187V82.5261C92.0521 77.8808 94.7545 75.5594 100.162 75.5594H122.871V110.771C122.871 115.589 120.223 117.998 114.933 117.998L94.8923 118ZM112.849 84.3478H103.812C102.652 84.3478 102.074 84.9033 102.074 86.0119V96.4716C102.074 97.5099 102.652 98.0314 103.812 98.0314H112.849V84.3478ZM148.405 94.189H138.789C138.017 94.189 137.63 94.5359 137.63 95.2297V97.3619C137.63 98.0556 138.017 98.4025 138.789 98.4025H147.246C148.019 98.4025 148.405 98.0556 148.405 97.3619V94.189ZM135.08 106.08C130.139 106.08 127.665 103.776 127.665 99.1666V94.6426C127.665 89.9294 130.136 87.5716 135.08 87.5716H148.418L148.405 85.648C148.398 84.6073 147.824 84.0882 146.668 84.0882H130.488V75.5618H150.318C155.725 75.5618 158.427 77.9536 158.427 82.7371V98.9071C158.427 103.691 155.821 106.082 150.605 106.082L135.08 106.08ZM199.373 106.08V86.1671C199.373 85.1265 198.795 84.6074 197.636 84.6074H191.264V106.08H181.358V84.6074H173.364V106.08H163.458V82.7347L163.413 75.5594H201.286C206.538 75.5594 209.164 77.9681 209.164 82.7856V106.078L199.373 106.08ZM214 106.08V75.5594H224.022V106.08H214ZM252.487 106.08L246.406 97.6069L240.556 106.08H228.1L240.034 90.4849L228.275 75.5642H240.844L246.753 83.7777L252.428 75.5642H264.535L252.834 90.4849L264.997 106.08H252.487ZM219.011 64.6775C221.89 64.6775 224.224 66.7709 224.224 69.3567C224.224 71.9401 221.89 74.036 219.011 74.036C216.131 74.036 213.798 71.9426 213.798 69.3567C213.798 66.7733 216.134 64.6775 219.011 64.6775ZM65.9343 87.4503H75.5501C76.3204 87.4503 76.7093 87.1034 76.7093 86.4097V84.2775C76.7093 83.5837 76.3229 83.2368 75.5501 83.2368H67.0936C66.3207 83.2368 65.9343 83.5837 65.9343 84.2775V87.4503ZM79.259 75.5594C84.2035 75.5594 86.6745 77.8638 86.6745 82.4751V86.9991C86.6745 91.7123 84.2035 94.0702 79.259 94.0702H65.922L65.9343 95.9938C65.9417 97.0344 66.5152 97.5535 67.6719 97.5535H83.8516V106.08H64.022C58.6149 106.08 55.9101 103.688 55.9101 98.9046V82.7347C55.9101 77.9511 58.5164 75.5594 63.7316 75.5594H79.259Z" fill="#2B2A29"/>
</g>
<defs>
<clipPath id="clip0_998_20762">
<rect width="265" height="118" fill="white"/>
</clipPath>
</defs>
</svg>
