<svg width="20" height="20" viewBox="0 0 20 20" fill="none" xmlns="http://www.w3.org/2000/svg">
<path d="M13.6501 18.9583H2.7001C1.90843 18.9583 1.17511 18.5917 0.700106 17.95C0.216773 17.3 0.075113 16.4833 0.31678 15.7083L3.82511 4.43329C4.14177 3.38329 5.10845 2.66663 6.20845 2.66663H16.4584C17.4668 2.66663 18.3751 3.2667 18.7584 4.20003C18.9668 4.68337 19.0084 5.23338 18.8834 5.77504L16.0751 17.05C15.8084 18.175 14.8084 18.9583 13.6501 18.9583ZM6.21677 3.92497C5.6751 3.92497 5.18344 4.28335 5.02511 4.80835L1.51678 16.0834C1.40011 16.475 1.46677 16.8834 1.71677 17.2167C1.95011 17.5334 2.31678 17.7167 2.70844 17.7167H13.6585C14.2335 17.7167 14.7334 17.325 14.8668 16.7667L17.6751 5.4833C17.7418 5.2083 17.7251 4.93334 17.6168 4.69167C17.4168 4.21667 16.9751 3.91663 16.4668 3.91663H6.21677V3.92497Z" fill="#292D32"/>
<path d="M17.3168 18.9583H13.3335C12.9918 18.9583 12.7085 18.6749 12.7085 18.3333C12.7085 17.9916 12.9918 17.7083 13.3335 17.7083H17.3168C17.6585 17.7083 17.9752 17.5666 18.2085 17.3166C18.4418 17.0666 18.5585 16.7333 18.5335 16.3916L17.7085 5.04164C17.6835 4.69997 17.9418 4.39993 18.2835 4.37493C18.6252 4.35827 18.9252 4.60822 18.9502 4.94988L19.7752 16.3C19.8252 16.9833 19.5835 17.6666 19.1168 18.1666C18.6585 18.675 18.0002 18.9583 17.3168 18.9583Z" fill="#292D32"/>
<path d="M8.06663 5.94159C8.01663 5.94159 7.96664 5.93324 7.91664 5.92491C7.58331 5.84157 7.37498 5.50821 7.45832 5.16655L8.32497 1.56659C8.4083 1.23326 8.74164 1.02488 9.0833 1.10822C9.41664 1.19155 9.62498 1.52491 9.54165 1.86658L8.67498 5.46664C8.60831 5.74997 8.34997 5.94159 8.06663 5.94159Z" fill="#292D32"/>
<path d="M13.6502 5.95003C13.6085 5.95003 13.5585 5.95001 13.5169 5.93335C13.1835 5.85835 12.9669 5.525 13.0335 5.19167L13.8168 1.57503C13.8918 1.23336 14.2252 1.02507 14.5585 1.09173C14.8919 1.1584 15.1085 1.49998 15.0418 1.83331L14.2585 5.45005C14.2002 5.75005 13.9419 5.95003 13.6502 5.95003Z" fill="#292D32"/>
<path d="M13.0837 10.625H6.41699C6.07533 10.625 5.79199 10.3417 5.79199 10C5.79199 9.65833 6.07533 9.375 6.41699 9.375H13.0837C13.4253 9.375 13.7087 9.65833 13.7087 10C13.7087 10.3417 13.4253 10.625 13.0837 10.625Z" fill="#292D32"/>
<path d="M12.2502 13.9584H5.5835C5.24183 13.9584 4.9585 13.675 4.9585 13.3334C4.9585 12.9917 5.24183 12.7084 5.5835 12.7084H12.2502C12.5918 12.7084 12.8752 12.9917 12.8752 13.3334C12.8752 13.675 12.5918 13.9584 12.2502 13.9584Z" fill="#292D32"/>
</svg>
