<svg width="20" height="20" viewBox="0 0 20 20" fill="none" xmlns="http://www.w3.org/2000/svg">
<g id="vuesax/outline/message-text">
<g id="message-text">
<path id="Vector" d="M13.3332 18.9583H2.49984C1.69984 18.9583 1.0415 18.3 1.0415 17.5V6.66663C1.0415 2.98329 2.98317 1.04163 6.6665 1.04163H13.3332C17.0165 1.04163 18.9582 2.98329 18.9582 6.66663V13.3333C18.9582 17.0166 17.0165 18.9583 13.3332 18.9583ZM6.6665 2.29163C3.68317 2.29163 2.2915 3.68329 2.2915 6.66663V17.5C2.2915 17.6166 2.38317 17.7083 2.49984 17.7083H13.3332C16.3165 17.7083 17.7082 16.3166 17.7082 13.3333V6.66663C17.7082 3.68329 16.3165 2.29163 13.3332 2.29163H6.6665Z" fill="#292D32"/>
<path id="Vector_2" d="M14.1668 8.54163H5.8335C5.49183 8.54163 5.2085 8.25829 5.2085 7.91663C5.2085 7.57496 5.49183 7.29163 5.8335 7.29163H14.1668C14.5085 7.29163 14.7918 7.57496 14.7918 7.91663C14.7918 8.25829 14.5085 8.54163 14.1668 8.54163Z" fill="#292D32"/>
<path id="Vector_3" d="M11.6668 12.7084H5.8335C5.49183 12.7084 5.2085 12.425 5.2085 12.0834C5.2085 11.7417 5.49183 11.4584 5.8335 11.4584H11.6668C12.0085 11.4584 12.2918 11.7417 12.2918 12.0834C12.2918 12.425 12.0085 12.7084 11.6668 12.7084Z" fill="#292D32"/>
</g>
</g>
</svg>
